<svg width="110" height="110" viewBox="0 0 110 110" fill="none" xmlns="http://www.w3.org/2000/svg">
<path d="M24 19H8C3.58172 19 0 22.5817 0 27C0 31.4183 3.58172 35 8 35H24C28.4183 35 32 31.4183 32 27C32 22.5817 28.4183 19 24 19Z" fill="#31A3F6"/>
<path d="M58 75H8C3.58172 75 0 78.5817 0 83C0 87.4183 3.58172 91 8 91H58C62.4183 91 66 87.4183 66 83C66 78.5817 62.4183 75 58 75Z" fill="#F63262"/>
<path d="M102 75H86C81.5817 75 78 78.5817 78 83C78 87.4183 81.5817 91 86 91H102C106.418 91 110 87.4183 110 83C110 78.5817 106.418 75 102 75Z" fill="#F63262"/>
<path d="M41 47H8C3.58172 47 0 50.5817 0 55C0 59.4183 3.58172 63 8 63H41C45.4183 63 49 59.4183 49 55C49 50.5817 45.4183 47 41 47Z" fill="#FFB700"/>
<path d="M102 47H69C64.5817 47 61 50.5817 61 55C61 59.4183 64.5817 63 69 63H102C106.418 63 110 59.4183 110 55C110 50.5817 106.418 47 102 47Z" fill="#FFB700"/>
<path d="M102 19H52C47.5817 19 44 22.5817 44 27C44 31.4183 47.5817 35 52 35H102C106.418 35 110 31.4183 110 27C110 22.5817 106.418 19 102 19Z" fill="#31A3F6"/>
</svg>
